# xmcd
#
# Track frame offsets:
#	150
#	12408
#	22681
#	36905
#	49207
#	60197
#	70097
#	82145
#	92875
#	104163
#	114390
#	124153
#	135925
#	149642
#	164869
#	177494
#	189453
#	200447
#	212409
#	226340
#	238724
#	248975
#	261415
#	272546
#	285424
#	296471
#	311903
#
# Disc length: 4406 seconds
#
# Revision: 1
# Processed by: cddbd v1.5.2PL0 Copyright (c) Steve Scherf et al.
# Submitted via: audiograbber 1.83.01
#
DISCID=9611341b
DTITLE=Crispian St. Peters - Anthology
DYEAR=2005
DGENRE=Pop-Balladen
TTITLE0=You were on my mind
TTITLE1=Free Spirit
TTITLE2=But she's untrue
TTITLE3=Changes
TTITLE4=Carolina
TTITLE5=At this moment
TTITLE6=No No No
TTITLE7=Your ever changing mind
TTITLE8=You'll forget me, goodbye
TTITLE9=You have gone
TTITLE10=Wandering Hobo
TTITLE11=Monumental Queen
TTITLE12=Do daddy do
TTITLE13=Oh Caroline
TTITLE14=It aint the same
TTITLE15=Every time you sinned
TTITLE16=Laura
TTITLE17=Sweet lies
TTITLE18=Please take me back
TTITLE19=Love love love
TTITLE20=Three goodbyes
TTITLE21=The silent times
TTITLE22=That's why we are through
TTITLE23=I fall to pieces
TTITLE24=I've cried a mile
TTITLE25=Country roads
TTITLE26=Saling deep water
EXTD=
EXTT0=
EXTT1=
EXTT2=
EXTT3=
EXTT4=
EXTT5=
EXTT6=
EXTT7=
EXTT8=
EXTT9=
EXTT10=
EXTT11=
EXTT12=
EXTT13=
EXTT14=
EXTT15=
EXTT16=
EXTT17=
EXTT18=
EXTT19=
EXTT20=
EXTT21=
EXTT22=
EXTT23=
EXTT24=
EXTT25=
EXTT26=
PLAYORDER=
